<?xml version="1.0" encoding="UTF-8" standalone="no"?>
<!-- Generator: Adobe Illustrator 16.0.0, SVG Export Plug-In . SVG Version: 6.00 Build 0)  -->

<svg
   xmlns:dc="http://purl.org/dc/elements/1.1/"
   xmlns:cc="http://creativecommons.org/ns#"
   xmlns:rdf="http://www.w3.org/1999/02/22-rdf-syntax-ns#"
   xmlns:svg="http://www.w3.org/2000/svg"
   xmlns="http://www.w3.org/2000/svg"
   xmlns:sodipodi="http://sodipodi.sourceforge.net/DTD/sodipodi-0.dtd"
   xmlns:inkscape="http://www.inkscape.org/namespaces/inkscape"
   version="1.1"
   id="Layer_1"
   x="0px"
   y="0px"
   width="24.088px"
   height="24px"
   viewBox="27.191 0 24.088 24"
   enable-background="new 27.191 0 24.088 24"
   xml:space="preserve"
   sodipodi:docname="lock .svg"
   inkscape:version="0.92.1 r15371"><metadata
     id="metadata9"><rdf:RDF><cc:Work
         rdf:about=""><dc:format>image/svg+xml</dc:format><dc:type
           rdf:resource="http://purl.org/dc/dcmitype/StillImage" /></cc:Work></rdf:RDF></metadata><defs
     id="defs7" /><sodipodi:namedview
     pagecolor="#ffffff"
     bordercolor="#666666"
     borderopacity="1"
     objecttolerance="10"
     gridtolerance="10"
     guidetolerance="10"
     inkscape:pageopacity="0"
     inkscape:pageshadow="2"
     inkscape:window-width="1135"
     inkscape:window-height="794"
     id="namedview5"
     showgrid="false"
     inkscape:zoom="9.8333333"
     inkscape:cx="10.264339"
     inkscape:cy="12"
     inkscape:window-x="0"
     inkscape:window-y="27"
     inkscape:window-maximized="0"
     inkscape:current-layer="Layer_1" /><path
     d="M47.576,24H31.588c-1.104,0-1.998-0.896-1.998-2.002V11.993c0-1.105,0.896-2.002,1.998-2.002h1V6.99  c0-3.868,3.131-7.004,6.994-7.004s6.995,3.136,6.995,7.004v3.001h0.999c1.104,0,1.998,0.896,1.998,2.002v10.005  C49.574,23.102,48.68,24,47.576,24z M43.579,6.99c0-2.21-1.79-4.002-3.997-4.002S35.585,4.78,35.585,6.99v3.001h7.994V6.99z"
     id="path2"
     style="fill:#b3b3b3;fill-opacity:1" /></svg>